<?xml version="1.0" encoding="UTF-8" standalone="no" ?>
<!DOCTYPE svg PUBLIC "-//W3C//DTD SVG 1.1//EN" "http://www.w3.org/Graphics/SVG/1.1/DTD/svg11.dtd">
<svg xmlns="http://www.w3.org/2000/svg" xmlns:xlink="http://www.w3.org/1999/xlink" version="1.1" width="640" height="640" viewBox="0 0 640 640" xml:space="preserve">
<desc>Created with Fabric.js 3.6.3</desc>
<defs>
</defs>
<g transform="matrix(0.84 0 0 0.84 323.01 319.01)"  >
<g style=""   >
		<g transform="matrix(10.13 0 0 10.13 0 0)"  >
<g style=""   >
		<g transform="matrix(1 0 0 1 1.86 10.76)"  >
<path style="stroke: none; stroke-width: 1; stroke-dasharray: none; stroke-linecap: butt; stroke-dashoffset: 0; stroke-linejoin: miter; stroke-miterlimit: 4; fill: rgb(35,93,193); fill-rule: nonzero; opacity: 1;"  transform=" translate(-26.36, -35.26)" d="M 16.7687 42.0936 L 23.2606 48.5855 H 33.7966 C 35.0806 48.5855 36.1126 47.5415 36.1126 46.2695 V 21.9336 L 16.7687 41.2896 C 16.5407 41.5056 16.5407 41.8656 16.7687 42.0936 Z" stroke-linecap="round" />
</g>
		<g transform="matrix(1 0 0 1 -10.93 -2.03)"  >
<path style="stroke: none; stroke-width: 1; stroke-dasharray: none; stroke-linecap: butt; stroke-dashoffset: 0; stroke-linejoin: miter; stroke-miterlimit: 4; fill: rgb(59,110,198); fill-rule: nonzero; opacity: 1;"  transform=" translate(-13.57, -22.47)" d="M 0.246094 15.0389 V 25.5749 L 6.73808 32.0669 C 6.96608 32.2949 7.32608 32.2949 7.54208 32.0669 L 26.898 12.7109 H 2.56209 C 1.29009 12.7109 0.246094 13.7549 0.246094 15.0389 Z" stroke-linecap="round" />
</g>
		<g transform="matrix(1 0 0 1 3.9 -3.94)"  >
<path style="stroke: none; stroke-width: 1; stroke-dasharray: none; stroke-linecap: butt; stroke-dashoffset: 0; stroke-linejoin: miter; stroke-miterlimit: 4; fill: rgb(93,141,228); fill-rule: nonzero; opacity: 1;"  transform=" translate(-28.4, -20.56)" d="M 24.6056 3.24096 L 8.98161 27.1449 C 8.45362 27.9609 8.56161 29.0289 9.24561 29.7129 L 19.2536 39.7209 C 19.9376 40.4049 21.0176 40.5129 21.8216 39.9849 L 45.7255 24.3489 C 47.2495 23.3529 48.1615 21.6489 48.1615 19.8369 V 3.16896 C 48.1615 1.86097 47.0935 0.792969 45.7855 0.792969 H 29.1296 C 27.3056 0.792969 25.6136 1.71697 24.6056 3.24096 Z" stroke-linecap="round" />
</g>
		<g transform="matrix(1 0 0 1 -18.27 18.24)"  >
<path style="stroke: none; stroke-width: 1; stroke-dasharray: none; stroke-linecap: butt; stroke-dashoffset: 0; stroke-linejoin: miter; stroke-miterlimit: 4; fill: rgb(159,187,240); fill-rule: nonzero; opacity: 1;"  transform=" translate(-6.23, -42.74)" d="M 3.76209 45.2995 V 36.8516 H 0.246094 V 48.6355 H 12.2101 V 45.2995 H 3.76209 Z" stroke-linecap="round" />
</g>
		<g transform="matrix(1 0 0 1 11.67 -11.95)"  >
<path style="stroke: none; stroke-width: 1; stroke-dasharray: none; stroke-linecap: butt; stroke-dashoffset: 0; stroke-linejoin: miter; stroke-miterlimit: 4; fill: rgb(173,197,242); fill-rule: nonzero; opacity: 1;"  transform=" translate(-36.17, -12.55)" d="M 36.1707 18.5016 C 39.4579 18.5016 42.1227 15.8368 42.1227 12.5496 C 42.1227 9.26245 39.4579 6.59766 36.1707 6.59766 C 32.8835 6.59766 30.2188 9.26245 30.2188 12.5496 C 30.2188 15.8368 32.8835 18.5016 36.1707 18.5016 Z" stroke-linecap="round" />
</g>
		<g transform="matrix(1 0 0 1 -3.88 3.86)"  >
<path style="stroke: none; stroke-width: 1; stroke-dasharray: none; stroke-linecap: butt; stroke-dashoffset: 0; stroke-linejoin: miter; stroke-miterlimit: 4; fill: rgb(108,154,238); fill-rule: nonzero; opacity: 1;"  transform=" translate(-20.62, -28.36)" d="M 25.5168 20.5261 L 12.7891 33.2539 L 15.7249 36.1898 L 28.4527 23.462 L 25.5168 20.5261 Z" stroke-linecap="round" />
</g>
		<g transform="matrix(1 0 0 1 -11.51 11.49)"  >
<path style="stroke: none; stroke-width: 1; stroke-dasharray: none; stroke-linecap: butt; stroke-dashoffset: 0; stroke-linejoin: miter; stroke-miterlimit: 4; fill: rgb(136,172,239); fill-rule: nonzero; opacity: 1;"  transform=" translate(-12.99, -35.99)" d="M 13.1902 38.7239 L 15.7188 36.1953 L 12.7829 33.2594 L 10.2543 35.788 L 13.1902 38.7239 Z" stroke-linecap="round" />
</g>
</g>
</g>
		<g transform="matrix(3.79 0 0 3.79 118.16 -122.46)"  >
<path style="stroke: none; stroke-width: 1; stroke-dasharray: none; stroke-linecap: butt; stroke-dashoffset: 0; stroke-linejoin: miter; stroke-miterlimit: 4; fill: rgb(0,0,0); fill-rule: nonzero; opacity: 1;"  transform=" translate(-16, -16)" d="M 16 0.396 c -8.839 0 -16 7.167 -16 16 c 0 7.073 4.584 13.068 10.937 15.183 c 0.803 0.151 1.093 -0.344 1.093 -0.772 c 0 -0.38 -0.009 -1.385 -0.015 -2.719 c -4.453 0.964 -5.391 -2.151 -5.391 -2.151 c -0.729 -1.844 -1.781 -2.339 -1.781 -2.339 c -1.448 -0.989 0.115 -0.968 0.115 -0.968 c 1.604 0.109 2.448 1.645 2.448 1.645 c 1.427 2.448 3.744 1.74 4.661 1.328 c 0.14 -1.031 0.557 -1.74 1.011 -2.135 c -3.552 -0.401 -7.287 -1.776 -7.287 -7.907 c 0 -1.751 0.62 -3.177 1.645 -4.297 c -0.177 -0.401 -0.719 -2.031 0.141 -4.235 c 0 0 1.339 -0.427 4.4 1.641 c 1.281 -0.355 2.641 -0.532 4 -0.541 c 1.36 0.009 2.719 0.187 4 0.541 c 3.043 -2.068 4.381 -1.641 4.381 -1.641 c 0.859 2.204 0.317 3.833 0.161 4.235 c 1.015 1.12 1.635 2.547 1.635 4.297 c 0 6.145 -3.74 7.5 -7.296 7.891 c 0.556 0.479 1.077 1.464 1.077 2.959 c 0 2.14 -0.02 3.864 -0.02 4.385 c 0 0.416 0.28 0.916 1.104 0.755 c 6.4 -2.093 10.979 -8.093 10.979 -15.156 c 0 -8.833 -7.161 -16 -16 -16 z" stroke-linecap="round" />
</g>
</g>
</g>
</svg>